<svg xmlns="http://www.w3.org/2000/svg" width="35.569" height="33.415" viewBox="0 0 35.569 33.415">
  <path id="_004-camera" data-name="004-camera" d="M27.232,48.915H8.336A8.346,8.346,0,0,1,0,40.579V29.394a8.346,8.346,0,0,1,8.336-8.336h3.574l.539-1.665A5.611,5.611,0,0,1,17.8,15.5h6.836a5.61,5.61,0,0,1,5.352,3.893l.771,2.422a8.354,8.354,0,0,1,4.808,7.579V40.579A8.346,8.346,0,0,1,27.232,48.915ZM8.336,23.836a5.564,5.564,0,0,0-5.558,5.558V40.579a5.564,5.564,0,0,0,5.558,5.558h18.9a5.564,5.564,0,0,0,5.558-5.558V29.394a5.553,5.553,0,0,0-3.628-5.234,1.389,1.389,0,0,1-.853-.886l-.965-3.032a2.837,2.837,0,0,0-2.706-1.963H17.8a2.839,2.839,0,0,0-2.708,1.97l-.85,2.626a1.389,1.389,0,0,1-1.322.961Zm17.3-1.389a1.389,1.389,0,0,0-1.389-1.389H18.194a1.389,1.389,0,0,0,0,2.779h6.051A1.389,1.389,0,0,0,25.634,22.447Zm-20.216,6.6A1.737,1.737,0,1,0,7.155,27.31,1.737,1.737,0,0,0,5.419,29.047Zm0,5.558a1.737,1.737,0,1,0,1.737-1.737A1.737,1.737,0,0,0,5.419,34.6Zm15.7,8.892a8.346,8.346,0,0,1-8.336-8.336C13.24,24.1,29,24.1,29.455,35.16A8.346,8.346,0,0,1,21.119,43.5Zm0-13.894a5.558,5.558,0,1,0,5.558,5.558A5.564,5.564,0,0,0,21.119,29.6Z" transform="translate(0 -15.5)" fill="#818181"/>
</svg>
