<svg xmlns="http://www.w3.org/2000/svg" width="40.239" height="40.542" viewBox="0 0 40.239 40.542">
  <g id="comments_1_" data-name="comments(1)" transform="translate(0.001 0)">
    <g id="Group_23451" data-name="Group 23451" transform="translate(-0.001 0)">
      <path id="Path_74096" data-name="Path 74096" d="M36.107,6.028a20.116,20.116,0,0,0-34.468,14.7,19.172,19.172,0,0,0,1.375,6.732,19.928,19.928,0,0,0,2.845,4.978L4.2,36.372A2.982,2.982,0,0,0,7.471,40.5l7.681-1.328A20.142,20.142,0,0,0,36.107,6.028ZM20.272,28.169H15.009a1.517,1.517,0,0,1,0-3.034h5.263a1.528,1.528,0,0,1,1.517,1.517A1.5,1.5,0,0,1,20.272,28.169Zm8.2-6.164H15.009a1.528,1.528,0,0,1-1.517-1.517,1.5,1.5,0,0,1,1.517-1.517H28.474a1.517,1.517,0,0,1,0,3.034Zm0-6.211H15.009a1.517,1.517,0,0,1,0-3.034H28.474a1.528,1.528,0,0,1,1.517,1.517A1.56,1.56,0,0,1,28.474,15.795Z" transform="translate(-1.63 0)" fill="#505050"/>
    </g>
  </g>
</svg>
