<svg xmlns="http://www.w3.org/2000/svg" width="33.9" height="33.9" viewBox="0 0 33.9 33.9">
  <g id="_747402" data-name="747402" transform="translate(0 0)">
    <g id="Group_965" data-name="Group 965" transform="translate(0 0)">
      <g id="Group_964" data-name="Group 964">
        <path id="Path_2161" data-name="Path 2161" d="M28.935,4.964A16.95,16.95,0,0,0,4.964,28.935,16.95,16.95,0,0,0,28.935,4.964ZM16.95,31.251a14.3,14.3,0,1,1,14.3-14.3A14.318,14.318,0,0,1,16.95,31.251Z" fill="#818181"/>
      </g>
    </g>
    <g id="Group_967" data-name="Group 967" transform="translate(6.969 18.871)">
      <g id="Group_966" data-name="Group 966">
        <path id="Path_2162" data-name="Path 2162" d="M122.724,285.057a9.474,9.474,0,0,1-1.657,2.807A7.165,7.165,0,0,1,115.4,290.5a7.624,7.624,0,0,1-5.849-2.668,10.2,10.2,0,0,1-1.81-2.827l-2.481.926a12.686,12.686,0,0,0,2.252,3.593,10.314,10.314,0,0,0,7.887,3.624,9.839,9.839,0,0,0,7.753-3.653,11.985,11.985,0,0,0,2.088-3.62Z" transform="translate(-105.262 -285.006)" fill="#818181"/>
      </g>
    </g>
    <g id="Group_969" data-name="Group 969" transform="translate(9.005 9.807)">
      <g id="Group_968" data-name="Group 968">
        <ellipse id="Ellipse_106" data-name="Ellipse 106" cx="2.119" cy="2.119" rx="2.119" ry="2.119" fill="#818181"/>
      </g>
    </g>
    <g id="Group_971" data-name="Group 971" transform="translate(20.658 9.807)">
      <g id="Group_970" data-name="Group 970">
        <ellipse id="Ellipse_107" data-name="Ellipse 107" cx="2.119" cy="2.119" rx="2.119" ry="2.119" fill="#818181"/>
      </g>
    </g>
  </g>
</svg>
