<svg xmlns="http://www.w3.org/2000/svg" width="29" height="28.996" viewBox="0 0 29 28.996">
  <path id="_3884324" data-name="3884324" d="M22.2,29.033H6.8a6.8,6.8,0,0,1-6.8-6.8V12.705A6.836,6.836,0,0,1,2.675,7.3l7.7-5.875a6.813,6.813,0,0,1,8.244,0L21.07,3.291V1.846a1.133,1.133,0,0,1,2.266,0V5.579a1.133,1.133,0,0,1-1.819.9L17.248,3.227a4.542,4.542,0,0,0-5.5,0L4.049,9.1a4.557,4.557,0,0,0-1.783,3.6v9.531A4.536,4.536,0,0,0,6.8,26.767H22.2a4.536,4.536,0,0,0,4.531-4.531V12.705A4.56,4.56,0,0,0,24.971,9.09a1.133,1.133,0,1,1,1.374-1.8A6.839,6.839,0,0,1,29,12.705v9.531A6.8,6.8,0,0,1,22.2,29.033ZM12.234,13.117a1.416,1.416,0,1,0,1.416,1.416A1.416,1.416,0,0,0,12.234,13.117Zm5.947,1.416a1.416,1.416,0,0,1-2.832,0A1.416,1.416,0,0,1,18.182,14.533ZM13.65,19.064a1.416,1.416,0,0,1-2.832,0A1.416,1.416,0,0,1,13.65,19.064Zm4.531,0a1.416,1.416,0,0,1-2.832,0A1.416,1.416,0,0,1,18.182,19.064Z" transform="translate(0 -0.037)" fill="#a1a3a8"/>
</svg>
