<svg xmlns="http://www.w3.org/2000/svg" width="31" height="31" viewBox="0 0 31 31">
  <g id="Group_25630" data-name="Group 25630" transform="translate(0 0)">
    <path id="Path_74060" data-name="Path 74060" d="M13.652,0A13.652,13.652,0,1,1,0,13.652,13.668,13.668,0,0,1,13.652,0Zm0,24.783A11.131,11.131,0,1,0,2.52,13.652,11.144,11.144,0,0,0,13.652,24.783Z" transform="translate(3.696)" fill="#424750"/>
    <g id="Group_23328" data-name="Group 23328" transform="translate(0 21.255)">
      <g id="Group_23327" data-name="Group 23327">
        <path id="Path_74061" data-name="Path 74061" d="M351.415,358.64l7.225-7.225a1.26,1.26,0,1,1,1.782,1.782l-7.225,7.225a1.26,1.26,0,1,1-1.782-1.782Z" transform="translate(-351.046 -351.046)" fill="#424750"/>
      </g>
    </g>
  </g>
</svg>
