<svg xmlns="http://www.w3.org/2000/svg" width="29.155" height="29.149" viewBox="0 0 29.155 29.149">
  <path id="_046-shopping" data-name="046-shopping" d="M20.837,24.64H12.013a6.84,6.84,0,0,1-6.832-6.832v-7A10.359,10.359,0,0,0,.512,2.134,1.139,1.139,0,1,1,1.766.233,12.655,12.655,0,0,1,5.757,4.456a6.5,6.5,0,0,0,4.662,2.023H23.531a5.632,5.632,0,0,1,5.442,6.976L27.463,19.47A6.823,6.823,0,0,1,20.837,24.64ZM7.171,8.112a12.723,12.723,0,0,1,.287,2.693v7a4.56,4.56,0,0,0,4.555,4.555h8.824a4.549,4.549,0,0,0,4.418-3.446L26.764,12.9a3.346,3.346,0,0,0-3.233-4.145H10.419a8.489,8.489,0,0,1-3.248-.643Zm4.273,19.659a1.423,1.423,0,1,0-1.423,1.423A1.423,1.423,0,0,0,11.443,27.771Zm11.33,0a1.423,1.423,0,1,0-1.423,1.423A1.423,1.423,0,0,0,22.773,27.771Zm1.9-15.6a1.139,1.139,0,0,0-1.139-1.139H10.874a1.139,1.139,0,0,0,0,2.277H23.531A1.139,1.139,0,0,0,24.669,12.172Z" transform="translate(0 -0.045)" fill="#616161"/>
</svg>
