<svg xmlns="http://www.w3.org/2000/svg" width="21.334" height="27.723" viewBox="0 0 21.334 27.723">
  <g id="_012-user" data-name="012-user" transform="translate(-59)">
    <g id="Group_23355" data-name="Group 23355" transform="translate(59 16.786)">
      <path id="Path_74069" data-name="Path 74069" d="M79.251,320.938a1.083,1.083,0,0,1-1.083-1.083,7.7,7.7,0,0,0-7.689-7.689H68.855a7.7,7.7,0,0,0-7.689,7.689,1.083,1.083,0,1,1-2.166,0A9.866,9.866,0,0,1,68.855,310h1.624a9.866,9.866,0,0,1,9.855,9.855A1.083,1.083,0,0,1,79.251,320.938Z" transform="translate(-59 -310)" fill="#616161"/>
    </g>
    <g id="Group_23356" data-name="Group 23356" transform="translate(62.249)">
      <path id="Path_74070" data-name="Path 74070" d="M126.31,14.62a7.31,7.31,0,1,1,7.31-7.31A7.318,7.318,0,0,1,126.31,14.62Zm0-12.454a5.144,5.144,0,1,0,5.144,5.144A5.15,5.15,0,0,0,126.31,2.166Z" transform="translate(-119)" fill="#616161"/>
    </g>
  </g>
</svg>
